# xmcd
#
# Track frame offsets: 
#        150
#        12169
#        25907
#        39082
#        50468
#        62593
#        81468
#        97173
#        112699
#        125917
#        134638
#        152653
#        166884
#        178004
#        188494
#
# Disc length: 2712 seconds
#
# Revision: 0
# Processed by: cddbd v1.5.2PL0 Copyright (c) Steve Scherf et al.
# Submitted via: ExactAudioCopyFreeDBPlugin 1.0
#
DISCID=c00a960f
DTITLE=Blind Pharaohs - Under a Wampus Moon
DYEAR=1998
DGENRE=Bluegrass
TTITLE0=Old Paint
TTITLE1=Tin Man
TTITLE2=Non-stop Holiday
TTITLE3=Cottonmouth Blues
TTITLE4=Old Hollow Tree
TTITLE5=I Feel
TTITLE6=If the Phone Rings One More Time (and it ain't you)
TTITLE7=When I Come Back to You
TTITLE8=Milk Cow Blues
TTITLE9=Greedo's Song
TTITLE10=Land Sakes Alive
TTITLE11=Pushin' My Luck
TTITLE12=One-Legged Girl (with a Lazy Eye)
TTITLE13=Dixie Fried
TTITLE14=Moonlight Eyes
EXTD=
EXTT0=
EXTT1=
EXTT2=
EXTT3=
EXTT4=
EXTT5=
EXTT6=
EXTT7=
EXTT8=
EXTT9=
EXTT10=
EXTT11=
EXTT12=
EXTT13=
EXTT14=
PLAYORDER=
